<?xml version="1.0" standalone="no"?>
<svg xmlns="http://www.w3.org/2000/svg" viewBox="0 0 204.768 36" width="204.768" height="36"><g fill="#305699" color="#305699" transform="translate(0 4) scale(0.5185186)"><svg width="54.0" height="54.0" x="0.0" y="0.0" viewBox="0 0 54 54"><path fill="currentColor" fill-rule="evenodd" d="M40.07 38.913l-1.002-1.002a16.242 16.242 0 0 0 4.182-10.094h1.422a17.624 17.624 0 0 1-4.603 11.096zm-12.253 5.759v-1.39a16.243 16.243 0 0 0 10.097-4.212l.999 1a17.618 17.618 0 0 1-11.096 4.602zm-12.732-4.604l.969-.967a16.235 16.235 0 0 0 10.128 4.182v1.389a17.615 17.615 0 0 1-11.097-4.604zm-5.759-12.25h1.356a16.241 16.241 0 0 0 4.212 10.128l-.965.966a17.628 17.628 0 0 1-4.603-11.095zm4.603-12.732l.966.966a16.244 16.244 0 0 0-4.212 10.129H9.327a17.623 17.623 0 0 1 4.602-11.095zm12.252-5.76v1.389a16.24 16.24 0 0 0-10.127 4.182l-.969-.968a17.63 17.63 0 0 1 11.096-4.603zm12.731 4.603l-.999.998c-2.7-2.45-6.22-4.01-10.096-4.21v-1.39a17.628 17.628 0 0 1 11.095 4.602zM28.974 26.18l7.851-7.852a13.066 13.066 0 0 1 3.247 7.852H28.974zm0 1.636h11.098c-.185 3-1.377 5.727-3.247 7.852l-7.851-7.852zm-1.157 1.157l7.853 7.853a13.075 13.075 0 0 1-7.853 3.276V28.974zm-1.636 0v11.133a13.072 13.072 0 0 1-7.885-3.249l7.885-7.885zm-1.157-1.157l-7.886 7.885a13.072 13.072 0 0 1-3.28-7.885h11.166zm0-1.636H13.859a13.08 13.08 0 0 1 3.279-7.886l7.886 7.886zm1.157-1.157l-7.885-7.884a13.073 13.073 0 0 1 7.885-3.25v11.134zm1.636-11.13a13.075 13.075 0 0 1 7.853 3.277l-7.853 7.853v-11.13zm16.855 12.287H43.25a16.238 16.238 0 0 0-4.182-10.095l1.001-1a17.625 17.625 0 0 1 4.603 11.095zm8.508 0h-3.545v-.273a.818.818 0 1 0-1.636 0v.273h-1.69a19.253 19.253 0 0 0-5.083-12.252l.815-.815.193.194a.815.815 0 0 0 1.158 0 .819.819 0 0 0 0-1.157l-.194-.193 2.893-2.893a.817.817 0 1 0-1.157-1.157L42.042 10.8l-.194-.194a.819.819 0 0 0-1.157 1.157l.193.194-.814.814A19.25 19.25 0 0 0 27.818 7.69V6h.273a.818.818 0 1 0-.001-1.636h-.273V.818a.818.818 0 1 0-1.636 0v3.546h-.273a.818.818 0 1 0 0 1.636h.273v1.69a19.244 19.244 0 0 0-12.251 5.084l-.816-.816.193-.193a.819.819 0 0 0-1.157-1.157l-.193.193-2.893-2.893a.819.819 0 0 0-1.157 1.158l2.893 2.892-.192.193a.819.819 0 0 0 1.157 1.157l.192-.193.815.815A19.25 19.25 0 0 0 7.69 26.182H6.545v-.274a.818.818 0 0 0-1.637 0v.273H.818a.818.818 0 1 0 0 1.637h4.09v.273a.818.818 0 1 0 1.638 0v-.273H7.69a19.253 19.253 0 0 0 5.082 12.251l-1.201 1.2-.193-.192a.819.819 0 0 0-1.157 1.156l.193.193-2.506 2.508a.818.818 0 1 0 1.157 1.156l2.506-2.507.193.193a.817.817 0 1 0 1.157-1.156l-.193-.194 1.201-1.2a19.253 19.253 0 0 0 12.252 5.083v1.144h-.273a.818.818 0 1 0 0 1.637h.272v4.09a.819.819 0 1 0 1.637 0v-4.09h.273a.818.818 0 1 0 0-1.637h-.273V46.31a19.257 19.257 0 0 0 12.252-5.083l1.2 1.2-.193.194a.816.816 0 0 0 .578 1.396c.21 0 .419-.08.579-.24l.193-.193 2.507 2.507a.815.815 0 0 0 1.157 0 .817.817 0 0 0 0-1.156l-2.507-2.508.193-.192a.817.817 0 1 0-1.156-1.157l-.193.193-1.2-1.2a19.252 19.252 0 0 0 5.082-12.252H48v.273a.818.818 0 1 0 1.636 0v-.273h3.546a.818.818 0 1 0-.002-1.637z"></path></svg></g><path fill="#0b005d" fill-rule="nonzero" d="M5.88 19.30Q3.70 19.30 2.20 18.08Q0.70 16.87 0 14.83L0 14.83L2.98 13.44L3.26 13.92Q3.96 15.12 4.60 15.79Q5.23 16.46 6.19 16.46L6.19 16.46Q6.82 16.46 7.31 15.86Q7.80 15.26 7.80 14.54L7.80 14.54Q7.80 13.87 7.46 13.32Q7.13 12.77 6.60 12.43L6.60 12.43L3.46 10.56Q2.09 9.79 1.27 8.62Q0.46 7.44 0.46 5.98L0.46 5.98Q0.46 4.42 1.19 3.19Q1.92 1.97 3.18 1.30Q4.44 0.62 6.02 0.62L6.02 0.62Q7.87 0.62 9.17 1.54Q10.46 2.45 11.09 4.25L11.09 4.25L8.11 5.59Q8.02 5.40 7.70 4.73Q7.39 4.06 6.95 3.76Q6.50 3.46 5.86 3.46L5.86 3.46Q5.06 3.46 4.64 3.96Q4.22 4.46 4.22 5.26L4.22 5.26Q4.22 5.83 4.55 6.30Q4.87 6.77 5.33 7.03L5.33 7.03L8.23 8.74Q11.45 10.56 11.62 13.54L11.62 13.54Q11.62 15.24 10.86 16.55Q10.10 17.86 8.80 18.58Q7.49 19.30 5.88 19.30L5.88 19.30ZM13.70 23.16L13.70 5.74L17.06 5.45L17.06 6.77Q17.86 5.98 18.54 5.63Q19.22 5.28 20.14 5.28L20.14 5.28Q21.38 5.28 22.12 5.98Q22.85 6.67 23.17 8.15Q23.50 9.62 23.50 12.10L23.50 12.10Q23.50 15.48 22.72 17.38Q21.94 19.27 19.73 19.27L19.73 19.27Q18.72 19.27 18.12 18.89Q17.52 18.50 17.06 17.81L17.06 17.81L17.06 22.49L13.70 23.16ZM18.53 16.70Q19.32 16.70 19.72 15.77Q20.11 14.83 20.11 12.24L20.11 12.24Q20.11 9.77 19.72 8.74Q19.32 7.70 18.50 7.70L18.50 7.70Q17.66 7.70 17.06 8.64L17.06 8.64L17.06 15.62Q17.54 16.70 18.53 16.70L18.53 16.70ZM30.22 19.27Q27.79 19.27 26.48 17.35Q25.18 15.43 25.18 12.24L25.18 12.24Q25.18 9.07 26.47 7.18Q27.77 5.28 30.22 5.28L30.22 5.28Q32.64 5.28 33.97 7.18Q35.30 9.07 35.30 12.24L35.30 12.24Q35.30 15.41 33.97 17.34Q32.64 19.27 30.22 19.27L30.22 19.27ZM30.22 16.78Q31.30 16.78 31.61 15.46Q31.92 14.14 31.92 12.22L31.92 12.22Q31.92 10.30 31.61 8.98Q31.30 7.66 30.22 7.66L30.22 7.66Q29.14 7.66 28.85 8.90Q28.56 10.15 28.56 11.95L28.56 11.95Q28.56 14.16 28.85 15.47Q29.14 16.78 30.22 16.78L30.22 16.78ZM37.58 19.10L37.58 5.74L40.94 5.45L40.94 7.63Q41.66 6.60 42.73 5.96Q43.80 5.33 45.46 5.33L45.46 5.33L45.46 8.62Q44.59 8.62 43.19 8.92Q41.78 9.22 40.94 9.96L40.94 9.96L40.94 18.82L37.58 19.10ZM51.89 19.22Q50.26 19.22 49.13 18.40Q48.00 17.57 48.00 15.46L48.00 15.46L48.00 7.99L46.13 7.99L46.27 5.45L48.10 5.45L48.43 2.52L51.36 2.11L51.36 5.45L54.14 5.45L54 7.99L51.38 7.99L51.38 15.43Q51.38 16.15 51.74 16.46Q52.10 16.78 52.80 16.78L52.80 16.78Q53.18 16.78 54.10 16.63L54.10 16.63L54.10 18.96Q54 18.98 53.34 19.10Q52.68 19.22 51.89 19.22L51.89 19.22ZM59.30 3.58L55.94 3.72L55.94 0.24L59.30 0L59.30 3.58ZM59.28 18.82L55.92 19.10L55.92 5.74L59.28 5.45L59.28 18.82ZM67.73 18.96L64.63 18.96L60.86 5.74L64.90 5.45L66.60 14.09L68.54 5.88L71.59 5.59L67.73 18.96ZM77.45 19.27Q75.05 19.27 73.78 17.36Q72.50 15.46 72.50 12.29L72.50 12.29Q72.50 9.07 73.80 7.18Q75.10 5.28 77.57 5.28L77.57 5.28Q79.92 5.28 81.17 7.18Q82.42 9.07 82.42 12.29L82.42 12.29Q82.42 12.48 82.34 12.56Q82.27 12.65 82.27 12.67L82.27 12.67L75.86 12.67Q75.86 14.23 76.27 15.52Q76.68 16.80 77.52 16.80L77.52 16.80Q78.46 16.80 78.91 15.72Q79.37 14.64 79.39 14.59L79.39 14.59L81.94 15.55Q81.43 17.28 80.33 18.28Q79.22 19.27 77.45 19.27L77.45 19.27ZM75.86 10.73L79.10 10.73Q79.10 9.29 78.72 8.45Q78.34 7.61 77.52 7.61L77.52 7.61Q77.11 7.61 76.73 8.02Q76.34 8.42 76.10 9.14Q75.86 9.86 75.86 10.73L75.86 10.73ZM106.22 18.82L102.58 19.10L102.58 5.59L99.22 18.96L97.06 18.96L93.43 5.54L93.43 18.82L90.53 18.96L90.53 1.13L95.69 0.98L98.66 12.12L101.52 1.39L106.22 1.10L106.22 18.82ZM113.66 19.27Q111.26 19.27 109.99 17.36Q108.72 15.46 108.72 12.29L108.72 12.29Q108.72 9.07 110.02 7.18Q111.31 5.28 113.78 5.28L113.78 5.28Q116.14 5.28 117.38 7.18Q118.63 9.07 118.63 12.29L118.63 12.29Q118.63 12.48 118.56 12.56Q118.49 12.65 118.49 12.67L118.49 12.67L112.08 12.67Q112.08 14.23 112.49 15.52Q112.90 16.80 113.74 16.80L113.74 16.80Q114.67 16.80 115.13 15.72Q115.58 14.64 115.61 14.59L115.61 14.59L118.15 15.55Q117.65 17.28 116.54 18.28Q115.44 19.27 113.66 19.27L113.66 19.27ZM112.08 10.73L115.32 10.73Q115.32 9.29 114.94 8.45Q114.55 7.61 113.74 7.61L113.74 7.61Q113.33 7.61 112.94 8.02Q112.56 8.42 112.32 9.14Q112.08 9.86 112.08 10.73L112.08 10.73ZM120.67 19.10L120.67 5.74L123.96 5.45L123.96 7.18Q124.70 6.31 125.68 5.80Q126.65 5.28 127.61 5.28L127.61 5.28Q129.12 5.28 129.60 7.39L129.60 7.39Q131.18 5.28 133.15 5.28L133.15 5.28Q134.45 5.28 135.00 6.31Q135.55 7.34 135.55 9.38L135.55 9.38L135.55 18.82L132.24 19.10L132.24 9.55Q132.24 8.90 132.00 8.53Q131.76 8.16 131.45 8.16L131.45 8.16Q130.94 8.16 130.50 8.44Q130.06 8.71 129.74 9.12L129.74 9.12L129.74 18.82L126.46 19.10L126.46 9.53Q126.46 8.86 126.25 8.51Q126.05 8.16 125.78 8.16L125.78 8.16Q125.30 8.16 124.80 8.45Q124.30 8.74 123.96 9.12L123.96 9.12L123.96 18.82L120.67 19.10ZM142.75 19.27Q140.33 19.27 139.02 17.35Q137.71 15.43 137.71 12.24L137.71 12.24Q137.71 9.07 139.01 7.18Q140.30 5.28 142.75 5.28L142.75 5.28Q145.18 5.28 146.51 7.18Q147.84 9.07 147.84 12.24L147.84 12.24Q147.84 15.41 146.51 17.34Q145.18 19.27 142.75 19.27L142.75 19.27ZM142.75 16.78Q143.83 16.78 144.14 15.46Q144.46 14.14 144.46 12.22L144.46 12.22Q144.46 10.30 144.14 8.98Q143.83 7.66 142.75 7.66L142.75 7.66Q141.67 7.66 141.38 8.90Q141.10 10.15 141.10 11.95L141.10 11.95Q141.10 14.16 141.38 15.47Q141.67 16.78 142.75 16.78L142.75 16.78ZM150.12 19.10L150.12 5.74L153.48 5.45L153.48 7.63Q154.20 6.60 155.27 5.96Q156.34 5.33 157.99 5.33L157.99 5.33L157.99 8.62Q157.13 8.62 155.72 8.92Q154.32 9.22 153.48 9.96L153.48 9.96L153.48 18.82L150.12 19.10ZM160.13 23.23Q159.55 23.23 158.71 23.09L158.71 23.09L158.71 20.28Q159.60 20.33 160.13 20.33L160.13 20.33Q162.24 20.33 162.24 18.36L162.24 18.36L162.24 17.69L158.38 5.62L162.02 5.45L163.92 13.92L165.72 5.52L168.77 5.50L165.31 18.72Q164.59 21.31 163.21 22.27Q161.83 23.23 160.13 23.23L160.13 23.23Z" transform="translate(36, 8.52)"></path></svg>